<?xml version="1.0" standalone="no"?>
<svg viewBox="0 0 200 200" xmlns="http://www.w3.org/2000/svg">
  <path fill="#FF0066" d="M34.7,-60.6C40,-57,36.1,-37.8,40.7,-25.1C45.4,-12.4,58.6,-6.2,66.7,4.7C74.8,15.6,77.8,31.1,67.4,33.8C57,36.6,33.2,26.5,19.8,30.4C6.3,34.4,3.1,52.5,-5.1,61.3C-13.3,70.2,-26.6,69.7,-40.1,65.7C-53.6,61.7,-67.3,54.2,-74.4,42.7C-81.5,31.2,-82.1,15.6,-75,4.1C-67.9,-7.4,-53.2,-14.8,-46.9,-27.8C-40.7,-40.8,-42.9,-59.5,-36.5,-62.5C-30.1,-65.6,-15,-53,-0.2,-52.7C14.7,-52.4,29.3,-64.3,34.7,-60.6Z" transform="translate(100 100)" />
</svg>
